<?xml version="1.0" standalone="no"?>
<!DOCTYPE svg PUBLIC "-//W3C//DTD SVG 20010904//EN"
 "http://www.w3.org/TR/2001/REC-SVG-20010904/DTD/svg10.dtd">
<svg version="1.0" xmlns="http://www.w3.org/2000/svg"
 width="100.000000pt" height="100.000000pt" viewBox="0 0 2550.000000 3300.000000"
 preserveAspectRatio="xMidYMid meet">

<g transform="translate(0.000000,3300.000000) scale(0.100000,-0.100000)"
fill="#000000" stroke="none">
<path d="M12050 25562 c-14 -2 -34 -7 -45 -12 -11 -5 -96 -11 -190 -14 -93 -3
-186 -10 -205 -16 -19 -6 -75 -11 -123 -11 -53 0 -102 -6 -122 -15 -19 -8 -65
-14 -103 -14 -44 0 -75 -5 -88 -15 -13 -10 -45 -14 -101 -15 -45 0 -84 -4 -88
-9 -3 -5 -36 -12 -73 -16 -37 -4 -92 -13 -121 -22 -30 -8 -68 -12 -85 -9 -19
4 -35 1 -46 -9 -11 -10 -40 -17 -73 -19 -31 -1 -62 -8 -70 -14 -7 -7 -36 -13
-63 -13 -27 -1 -63 -8 -81 -16 -18 -7 -49 -13 -70 -13 -21 0 -47 -7 -57 -15
-11 -8 -36 -15 -55 -15 -20 0 -45 -7 -55 -15 -11 -8 -36 -15 -56 -15 -20 0
-41 -5 -47 -11 -5 -5 -30 -12 -54 -14 -24 -1 -57 -10 -73 -18 -17 -9 -41 -14
-57 -10 -21 4 -30 1 -35 -11 -4 -10 -18 -16 -38 -16 -17 0 -40 -6 -51 -14 -11
-7 -41 -16 -67 -20 -26 -4 -50 -11 -53 -17 -4 -5 -21 -9 -38 -9 -18 0 -41 -7
-51 -15 -11 -8 -31 -15 -45 -15 -14 0 -35 -7 -45 -15 -11 -8 -30 -15 -42 -15
-13 0 -25 -4 -29 -9 -3 -6 -26 -13 -50 -17 -25 -3 -48 -10 -51 -15 -3 -5 -15
-9 -28 -9 -12 0 -31 -7 -42 -15 -10 -8 -28 -15 -40 -15 -11 0 -29 -7 -40 -15
-10 -8 -28 -15 -39 -15 -11 0 -33 -7 -49 -15 -15 -8 -34 -15 -41 -15 -8 0 -28
-8 -47 -17 -54 -27 -62 -30 -96 -37 -17 -4 -34 -12 -37 -17 -4 -5 -20 -9 -36
-9 -17 0 -32 -6 -35 -15 -4 -8 -16 -15 -29 -15 -12 0 -28 -7 -35 -15 -7 -8
-23 -15 -35 -15 -12 0 -28 -7 -35 -15 -7 -8 -23 -15 -36 -15 -12 0 -26 -4 -29
-10 -3 -5 -17 -10 -30 -10 -13 0 -26 -4 -29 -9 -6 -8 -34 -23 -136 -68 -19 -8
-42 -19 -50 -24 -8 -5 -22 -12 -30 -15 -24 -9 -83 -35 -112 -50 -14 -8 -33
-14 -42 -14 -9 0 -16 -4 -16 -10 0 -5 -7 -10 -16 -10 -9 0 -39 -13 -66 -30
-26 -16 -54 -30 -62 -30 -7 0 -19 -7 -26 -15 -7 -8 -23 -15 -35 -15 -13 0 -25
-7 -29 -15 -3 -8 -14 -15 -25 -15 -11 0 -21 -4 -23 -8 -1 -5 -30 -22 -63 -39
-108 -55 -199 -104 -250 -134 -27 -16 -70 -40 -95 -52 -25 -12 -47 -26 -49
-30 -2 -5 -13 -13 -25 -18 -11 -5 -43 -23 -71 -39 -27 -16 -61 -35 -75 -42
-14 -7 -27 -15 -30 -18 -3 -3 -23 -17 -45 -30 -22 -13 -42 -27 -45 -30 -3 -3
-21 -14 -41 -23 -20 -9 -42 -23 -49 -32 -7 -8 -16 -15 -21 -15 -7 0 -96 -57
-109 -70 -8 -8 -43 -29 -65 -39 -11 -5 -29 -17 -40 -28 -11 -10 -57 -43 -102
-73 -46 -30 -83 -58 -83 -62 0 -5 -5 -8 -10 -8 -6 0 -44 -25 -84 -55 -40 -30
-78 -55 -84 -55 -6 0 -15 -6 -19 -13 -4 -7 -44 -41 -88 -74 -44 -34 -111 -87
-150 -117 -38 -31 -88 -68 -110 -83 -22 -14 -48 -36 -57 -49 -10 -12 -47 -43
-83 -68 -35 -26 -68 -52 -72 -59 -4 -7 -24 -25 -43 -41 -35 -29 -123 -106
-234 -206 -96 -86 -624 -616 -706 -710 -41 -46 -86 -96 -99 -110 -13 -14 -40
-45 -60 -69 -20 -24 -47 -56 -61 -71 -14 -14 -59 -68 -100 -119 -41 -51 -93
-115 -115 -141 -22 -27 -57 -71 -77 -97 -21 -26 -52 -67 -70 -90 -18 -23 -43
-57 -56 -75 -13 -18 -66 -91 -118 -163 -127 -173 -353 -513 -461 -695 -79
-132 -164 -280 -193 -335 -14 -27 -37 -68 -51 -90 -26 -41 -289 -568 -332
-665 -14 -30 -39 -85 -56 -122 -17 -37 -31 -70 -31 -74 0 -3 -7 -22 -16 -42
-24 -53 -54 -124 -64 -147 -4 -11 -15 -36 -23 -55 -8 -19 -23 -57 -32 -85 -10
-27 -22 -54 -26 -60 -3 -5 -23 -57 -42 -115 -20 -58 -46 -130 -57 -160 -12
-30 -30 -84 -42 -120 -11 -36 -26 -79 -34 -97 -8 -17 -14 -38 -14 -47 0 -9 -4
-24 -9 -34 -9 -17 -13 -32 -69 -217 -44 -145 -59 -201 -77 -280 -9 -38 -21
-78 -26 -87 -5 -10 -9 -26 -9 -35 0 -10 -6 -38 -14 -63 -8 -25 -24 -90 -36
-145 -23 -107 -31 -144 -50 -215 -6 -25 -13 -63 -16 -85 -2 -22 -9 -52 -15
-66 -5 -14 -12 -45 -14 -70 -5 -68 -42 -270 -54 -303 -7 -16 -9 -37 -6 -47 4
-10 -1 -47 -9 -81 -8 -35 -24 -151 -36 -258 -11 -107 -25 -225 -30 -263 -6
-37 -10 -100 -10 -140 0 -40 -7 -124 -15 -187 -12 -94 -14 -227 -12 -725 2
-390 8 -653 16 -730 6 -66 16 -172 22 -235 5 -63 17 -171 26 -240 9 -69 18
-148 19 -176 1 -28 9 -81 18 -118 10 -37 15 -75 12 -83 -4 -9 0 -38 9 -67 16
-56 43 -213 50 -289 3 -27 8 -54 12 -60 4 -7 11 -34 14 -62 4 -27 13 -70 19
-95 18 -67 26 -105 50 -215 11 -55 26 -113 32 -130 5 -16 14 -48 18 -70 9 -41
43 -173 61 -235 6 -19 13 -46 15 -60 3 -14 9 -34 14 -45 19 -46 50 -153 50
-171 0 -11 7 -29 15 -40 8 -10 15 -27 15 -36 0 -21 88 -289 100 -303 4 -5 10
-21 13 -35 8 -37 123 -350 157 -427 6 -13 14 -33 19 -45 10 -26 41 -96 65
-150 9 -20 16 -40 16 -46 0 -5 17 -45 39 -88 21 -44 49 -104 61 -134 28 -69
285 -581 319 -635 13 -22 42 -72 62 -111 21 -39 53 -96 73 -127 20 -31 36 -59
36 -63 0 -3 13 -26 30 -51 16 -24 30 -46 30 -49 0 -3 25 -44 55 -89 30 -46 55
-86 55 -89 0 -10 153 -241 162 -244 4 -2 8 -8 8 -12 0 -11 96 -152 157 -232
23 -31 43 -61 43 -66 0 -6 4 -12 8 -14 12 -5 132 -165 132 -177 0 -5 4 -11 8
-13 8 -3 96 -114 123 -154 8 -13 31 -41 50 -61 19 -21 41 -48 49 -59 19 -28
213 -258 299 -354 123 -139 215 -235 441 -460 261 -262 369 -364 498 -475 52
-44 118 -102 147 -128 30 -26 71 -61 92 -76 21 -16 47 -37 58 -48 23 -22 307
-242 378 -293 26 -19 69 -51 95 -71 63 -48 188 -136 292 -205 160 -107 254
-169 271 -179 10 -5 52 -31 94 -57 41 -27 78 -48 80 -48 3 0 24 -13 47 -30 22
-16 45 -30 50 -30 5 0 24 -11 41 -24 18 -13 61 -38 97 -57 36 -18 69 -39 73
-46 4 -7 16 -13 25 -13 10 0 23 -5 29 -11 6 -6 39 -25 74 -43 35 -18 102 -53
149 -77 47 -24 91 -50 98 -56 7 -7 19 -13 26 -13 7 0 35 -12 62 -26 27 -14 63
-33 79 -41 17 -9 37 -20 45 -24 8 -5 22 -12 30 -15 24 -9 70 -30 140 -62 36
-17 86 -40 113 -51 67 -30 126 -56 169 -75 20 -9 39 -16 43 -16 3 0 33 -14 67
-30 33 -17 68 -30 78 -30 11 0 21 -4 25 -9 3 -5 29 -17 58 -26 59 -20 109 -40
150 -61 16 -8 37 -14 47 -14 10 0 21 -4 24 -9 3 -5 22 -12 43 -16 20 -4 46
-13 57 -21 11 -8 29 -14 38 -14 10 0 26 -4 36 -9 19 -10 59 -23 152 -53 36
-11 80 -27 98 -34 18 -8 41 -14 51 -14 10 0 24 -7 31 -15 7 -8 29 -15 49 -15
20 0 41 -4 47 -10 5 -5 30 -14 54 -19 89 -19 135 -32 144 -42 6 -5 23 -9 39
-9 15 0 38 -5 50 -12 12 -6 40 -15 62 -19 112 -22 152 -32 177 -45 14 -8 41
-14 60 -14 19 0 43 -7 54 -15 10 -8 36 -15 56 -15 20 0 48 -4 63 -10 14 -5 51
-13 83 -16 31 -3 65 -10 74 -15 9 -5 30 -9 47 -9 16 0 42 -5 58 -12 15 -6 53
-15 83 -19 30 -4 75 -12 100 -17 84 -19 185 -35 254 -39 38 -3 80 -12 93 -20
13 -9 35 -13 51 -10 15 2 52 0 82 -5 30 -5 96 -13 145 -17 50 -5 131 -13 180
-20 235 -29 392 -34 1055 -34 684 0 860 6 1090 38 58 9 133 15 168 15 35 0 72
4 82 10 10 5 53 12 95 14 42 2 81 8 88 15 6 6 39 11 73 11 35 0 73 4 86 9 14
5 67 14 119 21 52 6 98 15 103 21 6 5 33 9 60 9 28 1 62 7 76 15 14 8 42 14
63 15 21 0 46 4 55 9 9 5 67 16 127 26 61 9 123 23 138 31 16 8 44 14 62 14
18 0 46 6 62 14 15 8 73 24 128 37 55 12 104 26 109 30 6 5 24 9 41 9 17 0 41
7 53 16 13 9 30 13 38 10 9 -3 25 0 37 6 20 12 46 19 162 49 22 6 44 14 49 20
6 5 21 9 34 9 13 0 36 6 50 14 15 7 54 21 87 31 33 9 74 23 90 30 17 7 53 20
80 28 84 27 139 47 157 57 10 6 25 10 34 10 9 0 28 6 42 14 15 8 47 22 72 31
25 9 53 21 62 26 10 5 23 9 28 9 6 0 32 9 58 21 26 11 56 24 67 28 91 37 138
57 185 78 30 14 64 29 75 33 11 4 65 29 120 55 55 26 129 61 165 77 36 16 79
37 95 46 17 8 39 20 50 25 11 6 27 14 35 19 8 4 22 11 30 14 8 3 22 10 30 15
8 5 22 12 30 15 8 3 22 9 30 14 8 5 40 22 70 38 128 67 236 125 250 136 8 7
33 21 54 31 22 11 87 48 144 83 58 34 107 62 109 62 6 0 153 95 170 110 7 5
15 10 18 10 3 0 33 18 65 40 32 22 61 40 64 40 6 0 106 69 116 80 10 11 129
90 135 90 4 0 25 15 48 34 23 18 67 51 98 72 87 60 378 281 419 318 8 7 65 53
125 101 126 101 204 168 319 275 45 42 110 101 146 132 74 63 550 542 601 603
18 22 65 74 104 116 38 42 102 113 140 158 39 46 88 104 111 129 22 26 55 67
74 92 19 25 37 47 40 50 3 3 23 28 45 55 21 28 42 52 46 55 3 3 11 14 17 26 6
12 27 41 47 65 19 24 39 49 44 54 4 6 49 67 100 135 50 69 94 130 98 135 11
14 66 97 78 117 5 9 58 88 116 175 115 171 269 419 269 433 0 5 7 15 15 24 8
8 30 44 49 80 19 36 43 78 54 93 11 15 43 73 71 128 56 108 66 125 81 153 6 9
13 24 16 32 3 8 9 22 14 30 13 21 121 240 165 335 21 44 53 111 71 149 19 38
34 77 34 86 0 10 7 23 15 30 8 7 15 21 15 31 0 10 4 20 9 24 5 3 15 22 22 43
10 31 33 90 98 247 36 86 114 293 122 320 8 31 33 105 48 140 14 33 32 88 41
120 4 17 15 50 24 75 22 61 82 265 132 445 9 33 22 80 29 105 7 25 25 99 40
165 15 66 34 143 41 170 8 28 23 97 34 155 11 58 28 139 36 180 40 192 60 307
74 418 25 202 31 246 37 255 3 5 7 48 9 94 2 47 8 99 13 116 6 18 13 73 15
122 3 50 12 178 21 285 21 273 21 1181 0 1440 -9 102 -18 232 -21 289 -2 57
-9 112 -14 122 -6 9 -10 46 -11 81 -1 34 -7 92 -15 128 -7 36 -21 128 -30 205
-9 77 -23 171 -30 208 -8 38 -14 80 -14 94 0 15 -4 40 -10 57 -5 17 -16 65
-25 106 -41 201 -66 320 -78 375 -35 149 -69 284 -83 335 -9 30 -20 75 -26
100 -6 25 -14 50 -18 55 -4 6 -11 26 -14 45 -7 37 -65 229 -97 321 -10 31 -19
65 -19 75 0 10 -7 28 -15 38 -8 11 -15 29 -15 41 0 12 -4 25 -8 31 -5 5 -19
41 -31 79 -12 39 -26 79 -30 90 -5 11 -22 56 -38 100 -51 134 -115 298 -134
342 -11 23 -19 45 -19 48 0 3 -18 44 -40 91 -22 47 -40 89 -40 95 0 5 -4 17
-9 27 -6 9 -38 76 -71 147 -135 283 -314 632 -392 763 -21 35 -38 65 -38 67 0
3 -45 78 -100 169 -55 90 -100 168 -100 175 0 6 -3 11 -7 11 -5 0 -35 43 -68
96 -33 53 -65 101 -70 108 -6 6 -51 71 -100 144 -50 74 -99 146 -110 162 -97
136 -136 188 -154 204 -12 11 -21 24 -21 29 0 6 -17 31 -38 56 -21 25 -45 57
-55 71 -10 14 -34 46 -55 71 -20 25 -56 69 -80 99 -55 68 -125 151 -182 214
-25 28 -63 73 -85 101 -22 27 -57 67 -78 90 -22 22 -69 74 -106 114 -96 108
-483 496 -571 571 -41 36 -102 92 -135 125 -33 33 -73 69 -90 79 -16 11 -57
45 -90 76 -33 30 -82 74 -109 95 -119 96 -172 140 -184 152 -7 7 -17 13 -21
13 -4 0 -24 16 -44 36 -19 20 -49 43 -65 52 -43 24 -386 283 -395 299 -4 7
-15 13 -23 13 -8 0 -39 18 -68 40 -29 22 -58 40 -64 40 -6 0 -15 6 -19 13 -8
12 -99 77 -108 77 -3 0 -32 18 -64 40 -32 22 -64 40 -70 40 -6 0 -11 4 -11 9
0 6 -11 16 -24 23 -13 7 -43 24 -67 37 -24 13 -48 30 -52 37 -4 8 -15 14 -24
14 -9 0 -31 11 -49 25 -18 14 -37 25 -42 25 -5 0 -15 7 -22 15 -7 8 -19 15
-26 15 -8 0 -33 14 -56 30 -22 17 -45 30 -49 30 -5 0 -41 20 -81 44 -75 45
-90 53 -224 120 -44 22 -80 43 -82 48 -2 4 -12 8 -22 8 -9 0 -23 7 -30 15 -7
8 -20 15 -30 15 -10 0 -23 7 -30 15 -7 8 -20 15 -30 15 -10 0 -23 7 -30 15 -7
8 -21 15 -31 15 -11 0 -19 4 -19 9 0 5 -13 12 -30 16 -16 4 -30 11 -30 16 0 5
-8 9 -18 9 -10 0 -27 7 -38 15 -10 8 -26 15 -35 15 -9 0 -22 7 -29 15 -7 8
-20 15 -30 15 -10 0 -23 6 -29 13 -6 8 -38 22 -71 33 -33 10 -60 22 -60 26 0
3 -13 9 -30 13 -16 4 -30 11 -30 16 0 5 -9 9 -20 9 -17 0 -61 18 -122 51 -10
5 -26 9 -37 9 -10 0 -24 7 -31 15 -7 8 -20 15 -29 15 -9 0 -25 7 -35 15 -11 8
-30 15 -42 15 -13 0 -25 4 -29 9 -3 5 -20 13 -37 17 -34 7 -42 10 -96 37 -19
9 -41 17 -51 17 -9 0 -22 5 -28 11 -6 6 -26 14 -44 19 -38 9 -88 27 -136 47
-17 7 -36 13 -42 13 -6 0 -19 4 -29 9 -9 5 -44 16 -77 26 -33 9 -75 23 -93 31
-18 8 -41 14 -50 14 -10 0 -27 7 -38 15 -10 8 -32 15 -49 15 -16 0 -39 7 -49
15 -11 8 -34 15 -50 15 -17 1 -42 7 -56 15 -14 8 -35 14 -48 15 -12 0 -34 7
-47 16 -13 9 -32 14 -42 12 -10 -3 -29 1 -43 8 -14 6 -49 15 -77 19 -29 4 -55
11 -59 16 -3 5 -22 9 -43 9 -20 0 -46 7 -57 15 -10 8 -35 15 -55 15 -19 0 -44
7 -55 15 -10 8 -36 15 -57 15 -21 0 -54 7 -74 15 -19 8 -56 15 -82 15 -26 0
-52 5 -59 12 -6 6 -37 13 -68 14 -34 2 -63 9 -74 19 -12 11 -26 14 -43 10 -15
-4 -48 0 -77 10 -28 9 -83 18 -122 20 -39 2 -76 9 -81 14 -6 6 -45 11 -86 11
-47 1 -86 6 -101 15 -15 8 -53 14 -93 15 -39 0 -80 6 -96 14 -18 10 -60 15
-127 15 -55 0 -113 5 -129 11 -17 7 -108 14 -205 17 -97 3 -181 10 -188 15
-11 10 -1209 19 -1282 10z m1279 -408 c139 -8 276 -19 304 -24 27 -6 72 -10
99 -10 27 0 79 -4 116 -9 37 -6 105 -15 152 -21 155 -20 353 -51 460 -72 58
-11 132 -24 164 -29 33 -5 76 -14 95 -19 20 -5 79 -18 131 -29 135 -29 250
-56 360 -85 52 -14 106 -28 120 -31 99 -25 424 -123 610 -185 183 -61 631
-233 765 -295 28 -13 70 -32 95 -42 124 -54 237 -108 465 -223 138 -70 268
-137 290 -150 22 -12 74 -42 115 -65 116 -65 189 -108 265 -154 39 -24 85 -52
104 -63 50 -28 462 -303 529 -352 31 -23 100 -73 152 -111 52 -38 131 -98 175
-133 44 -34 107 -84 140 -110 96 -75 381 -317 485 -411 274 -248 749 -741 950
-985 36 -43 83 -100 105 -126 72 -84 241 -302 342 -440 94 -128 333 -476 333
-484 0 -2 18 -31 40 -64 264 -396 587 -1014 813 -1557 255 -616 472 -1324 576
-1885 12 -63 26 -131 31 -150 5 -19 11 -53 14 -75 2 -22 12 -80 21 -129 41
-231 92 -668 117 -1016 16 -220 15 -1076 -1 -1290 -28 -374 -72 -764 -112
-990 -11 -63 -24 -140 -29 -170 -30 -194 -117 -579 -205 -905 -71 -265 -217
-700 -340 -1015 -182 -464 -434 -982 -690 -1415 -243 -412 -398 -641 -770
-1134 -32 -43 -194 -239 -289 -351 -375 -440 -952 -1000 -1379 -1335 -21 -16
-55 -43 -76 -60 -185 -147 -484 -364 -661 -479 -58 -38 -123 -81 -145 -96 -87
-59 -486 -295 -665 -393 -215 -117 -592 -297 -855 -408 -77 -33 -160 -68 -185
-79 -117 -51 -553 -204 -840 -295 -235 -75 -683 -184 -1065 -259 -90 -18 -423
-71 -500 -81 -27 -3 -84 -10 -125 -15 -154 -19 -471 -49 -635 -61 -220 -16
-1059 -16 -1265 0 -202 16 -447 39 -535 51 -38 5 -110 14 -160 20 -129 16
-336 48 -435 66 -47 9 -107 20 -135 25 -760 140 -1620 414 -2336 745 -127 59
-535 263 -604 302 -27 16 -81 46 -120 67 -38 21 -86 48 -105 60 -19 12 -57 34
-83 49 -394 218 -1020 663 -1431 1014 -278 238 -387 341 -700 656 -284 287
-607 654 -781 887 -11 15 -59 78 -106 140 -275 365 -541 774 -774 1194 -238
428 -494 994 -657 1450 -58 164 -153 449 -178 540 -13 44 -29 100 -37 124 -7
24 -27 96 -44 160 -17 64 -39 148 -49 186 -68 259 -168 786 -210 1116 -36 280
-68 642 -75 859 -2 80 -7 217 -11 305 -6 171 10 737 26 923 6 61 15 165 20
230 6 64 15 151 20 192 6 41 15 113 21 160 45 357 132 819 214 1135 57 220 75
288 90 335 8 25 29 92 46 150 103 348 266 790 404 1100 26 58 64 143 85 190
56 127 229 471 322 638 208 378 441 746 667 1055 47 65 96 133 108 150 55 79
309 397 417 522 337 388 812 865 1116 1120 88 73 365 300 391 320 207 158 331
248 489 358 82 56 310 207 314 207 2 0 31 17 63 39 65 43 279 171 363 218 262
146 340 187 515 273 505 248 965 434 1430 579 55 17 115 36 133 42 173 57 681
185 907 229 61 11 130 25 155 30 493 96 1100 160 1645 174 208 5 640 -5 904
-20z"/>
<path d="M12425 24919 c-257 -8 -433 -19 -673 -41 l-122 -11 5 -81 c3 -44 10
-115 15 -156 5 -41 14 -138 21 -215 6 -77 14 -143 18 -147 3 -4 76 0 161 7
211 20 257 19 268 -2 5 -10 12 -59 15 -110 8 -113 10 -111 -142 -124 -183 -15
-333 -29 -418 -41 -75 -10 -85 -10 -103 7 -11 10 -20 31 -20 46 0 15 -4 50 -9
76 -5 26 -15 84 -21 128 -6 44 -15 107 -20 140 -19 123 -40 263 -52 348 l-12
89 -56 -7 c-30 -3 -77 -10 -105 -15 -27 -6 -108 -19 -180 -30 -167 -26 -156
-24 -320 -59 -384 -81 -445 -96 -445 -114 1 -21 137 -567 143 -574 4 -3 46 4
94 15 199 48 265 62 293 62 37 0 56 -28 66 -95 4 -27 11 -60 15 -73 19 -50 1
-60 -171 -98 -41 -9 -154 -37 -250 -61 -96 -25 -186 -46 -199 -47 -21 -1 -28
6 -42 49 -26 76 -211 696 -216 728 -6 32 -31 35 -90 13 -21 -8 -85 -29 -143
-46 -213 -65 -491 -162 -752 -265 -96 -38 -114 -54 -89 -81 4 -5 22 -46 39
-91 17 -44 63 -160 102 -257 72 -174 86 -195 115 -167 6 4 30 15 55 24 25 9
103 38 174 66 88 34 134 47 142 40 6 -5 26 -52 44 -105 28 -82 30 -98 19 -110
-8 -7 -57 -29 -109 -48 -94 -34 -173 -65 -365 -146 -133 -56 -129 -55 -147
-28 -19 30 -338 718 -338 729 0 18 -39 8 -119 -31 -45 -22 -84 -40 -86 -40 -7
0 -377 -185 -443 -221 -82 -46 -291 -163 -329 -185 -18 -11 -33 -23 -33 -29 0
-12 30 -65 174 -315 59 -102 112 -191 119 -197 13 -13 16 -12 102 37 163 93
269 150 280 150 17 0 26 -12 75 -107 52 -97 53 -94 -64 -156 -115 -61 -333
-188 -396 -230 -29 -19 -59 -33 -67 -30 -14 5 -126 172 -368 548 -55 85 -103
155 -107 155 -9 0 -302 -195 -448 -298 -245 -174 -470 -349 -470 -365 1 -7 53
-77 116 -157 64 -80 146 -184 182 -232 37 -48 72 -87 77 -88 6 0 37 22 70 48
135 108 264 202 278 202 9 0 28 -18 44 -40 15 -23 43 -61 62 -85 41 -54 43
-51 -86 -147 -91 -67 -262 -203 -354 -280 -25 -21 -48 -38 -51 -38 -5 0 -303
336 -474 534 -69 81 -89 99 -103 94 -49 -17 -801 -741 -801 -771 0 -8 37 -49
83 -92 45 -44 138 -134 207 -200 69 -67 131 -125 138 -129 9 -6 58 38 159 143
79 83 151 151 160 151 16 0 152 -138 153 -156 0 -6 -53 -65 -118 -130 -64 -66
-164 -170 -220 -231 -57 -62 -108 -113 -113 -113 -5 0 -51 37 -102 83 -52 45
-134 116 -183 158 -49 42 -122 105 -163 140 -151 131 -191 161 -205 156 -29
-11 -320 -367 -514 -627 -67 -91 -136 -182 -152 -202 -17 -20 -30 -43 -30 -50
0 -7 47 -46 103 -85 226 -161 284 -202 329 -237 26 -20 54 -36 61 -36 7 0 66
71 130 158 64 88 123 165 132 172 15 13 45 -6 155 -98 l34 -29 -27 -39 c-14
-22 -67 -93 -115 -160 -49 -66 -122 -169 -161 -227 -49 -73 -79 -107 -91 -107
-11 0 -59 26 -107 58 -48 32 -140 91 -203 131 -63 40 -177 112 -253 162 -76
49 -143 89 -147 89 -12 0 -65 -80 -175 -260 -99 -162 -215 -361 -215 -366 0
-3 -41 -79 -90 -170 -50 -90 -90 -169 -90 -174 0 -9 78 -52 365 -200 141 -73
181 -90 187 -79 5 8 47 86 94 174 47 88 94 168 104 179 17 18 20 17 100 -31
46 -27 87 -55 93 -64 7 -11 -5 -40 -43 -109 -29 -52 -91 -171 -137 -265 -105
-213 -97 -199 -117 -203 -9 -2 -40 8 -68 21 -62 29 -269 124 -348 160 -30 13
-77 34 -105 47 -27 12 -92 42 -144 66 -52 24 -98 44 -102 44 -18 0 -185 -385
-306 -705 -103 -276 -126 -347 -112 -356 8 -5 59 -24 114 -43 55 -19 172 -60
260 -91 88 -31 169 -59 180 -62 18 -4 25 10 62 114 73 208 92 257 110 274 17
17 22 16 103 -17 47 -19 90 -41 97 -50 9 -12 6 -30 -14 -82 -15 -37 -61 -170
-104 -296 -43 -126 -83 -234 -88 -239 -11 -11 -57 0 -216 48 -44 14 -120 36
-170 51 -49 14 -160 46 -245 71 -85 25 -163 46 -174 47 -15 1 -23 -14 -42 -79
-46 -155 -140 -518 -164 -630 -4 -22 -22 -110 -40 -195 -18 -85 -33 -164 -34
-175 -1 -18 16 -23 179 -56 342 -68 416 -81 423 -74 6 6 63 264 78 357 10 60
23 65 117 45 98 -21 131 -40 123 -70 -8 -25 -67 -312 -90 -437 -9 -47 -16 -97
-16 -111 0 -14 -9 -34 -20 -44 -20 -18 -27 -18 -253 15 -127 18 -259 37 -292
41 -33 4 -91 13 -130 18 -38 6 -93 13 -121 17 l-50 6 -17 -123 c-17 -125 -46
-391 -66 -594 -6 -60 -11 -150 -12 -200 0 -49 -4 -116 -8 -148 -4 -31 -5 -61
-2 -66 4 -4 119 -14 256 -20 138 -6 275 -13 306 -16 l56 -4 7 107 c4 59 9 152
13 207 3 55 10 106 16 114 9 10 32 12 107 6 52 -4 101 -12 109 -18 10 -9 12
-26 7 -72 -4 -33 -11 -174 -15 -314 -7 -230 -10 -255 -26 -268 -15 -10 -101
-13 -432 -13 l-413 0 0 -137 c1 -244 40 -947 55 -990 3 -8 15 -11 32 -8 15 3
152 16 303 30 151 14 278 29 282 33 4 4 3 41 -2 82 -5 41 -14 131 -19 200 -11
158 -12 157 113 161 79 3 90 1 102 -16 7 -11 19 -101 28 -205 20 -226 35 -370
41 -391 13 -42 -49 -59 -370 -100 -38 -4 -146 -20 -240 -34 -93 -14 -183 -25
-198 -25 -15 0 -30 -6 -33 -14 -3 -7 2 -60 11 -117 9 -57 20 -131 25 -164 15
-106 90 -491 104 -536 2 -8 19 -78 37 -156 25 -108 37 -143 49 -143 8 0 89 18
180 40 91 22 185 45 210 51 186 43 195 46 194 70 -1 13 -16 83 -33 154 -54
221 -56 235 -40 249 8 8 54 21 102 31 103 21 109 19 127 -60 7 -27 16 -66 21
-85 5 -19 29 -120 54 -225 25 -104 50 -201 56 -214 14 -33 -9 -53 -86 -74 -79
-22 -379 -110 -640 -188 -38 -12 -74 -25 -78 -29 -18 -16 230 -751 348 -1033
16 -40 33 -45 75 -24 14 7 63 28 110 46 47 18 108 44 137 57 28 13 55 24 60
24 9 0 206 80 212 86 2 2 -10 38 -27 81 -129 327 -125 315 -109 331 14 14 125
58 173 69 27 6 37 -8 67 -93 32 -89 151 -382 177 -437 37 -77 44 -71 -265
-212 -33 -14 -73 -33 -90 -40 -280 -127 -381 -177 -383 -190 -4 -17 8 -43 144
-320 98 -200 133 -265 256 -485 112 -199 112 -200 124 -200 6 0 45 20 85 43
205 121 406 237 421 242 30 12 26 30 -29 125 -102 178 -147 266 -141 281 3 8
45 34 92 58 78 40 88 43 102 30 8 -9 48 -74 88 -145 105 -186 179 -313 210
-358 15 -22 25 -44 23 -50 -3 -10 -56 -46 -267 -184 -25 -17 -90 -59 -145 -94
-277 -178 -296 -191 -291 -204 17 -44 342 -511 490 -704 146 -190 161 -209
169 -210 4 0 43 28 86 62 43 35 102 81 131 103 28 22 92 73 142 113 50 40 99
77 109 83 11 5 19 14 19 19 0 6 -35 54 -78 107 -115 144 -179 236 -175 250 5
14 157 123 172 123 5 0 53 -57 107 -128 54 -70 144 -184 201 -254 l103 -127
-72 -63 c-83 -73 -135 -119 -278 -243 -57 -49 -131 -115 -164 -145 -34 -31
-76 -66 -93 -78 -18 -13 -33 -29 -33 -35 0 -28 457 -516 667 -713 l125 -118
56 59 c31 33 125 131 209 218 84 88 153 164 153 171 0 7 -65 77 -145 156 -80
79 -145 151 -145 160 0 15 139 150 154 150 3 0 52 -46 109 -103 56 -56 161
-155 232 -220 72 -65 131 -123 133 -128 3 -8 -381 -457 -500 -586 -26 -28 -48
-56 -48 -61 0 -31 808 -669 886 -699 7 -3 58 59 118 144 58 81 137 191 176
243 38 52 69 100 70 107 0 7 -21 27 -47 45 -111 75 -288 211 -291 223 -3 14
124 175 138 175 5 0 24 -13 42 -28 32 -28 276 -203 408 -293 36 -25 66 -52 68
-61 2 -9 -92 -164 -209 -345 -116 -180 -216 -335 -222 -344 -5 -9 -8 -23 -5
-30 5 -12 317 -209 443 -280 204 -114 279 -155 398 -218 76 -40 139 -71 141
-70 11 16 69 125 156 294 57 110 107 204 111 210 5 5 9 18 9 30 0 16 -34 38
-162 105 -165 87 -208 114 -208 131 0 6 16 35 35 65 19 30 35 58 35 62 0 5 12
19 26 33 24 23 27 23 53 8 104 -60 454 -239 503 -258 51 -19 50 -37 -8 -161
-70 -151 -98 -213 -129 -283 -14 -32 -40 -90 -59 -130 -66 -140 -96 -210 -96
-224 0 -16 64 -47 330 -160 283 -121 679 -267 708 -261 10 2 27 36 48 98 18
52 60 174 93 270 34 96 61 182 61 192 0 11 -18 23 -55 37 -31 12 -58 21 -61
21 -21 0 -253 95 -268 110 -18 18 -18 20 -2 54 9 20 23 55 32 78 23 67 60 96
90 69 11 -10 155 -62 379 -137 94 -31 175 -61 182 -68 9 -8 3 -39 -24 -131
-19 -66 -38 -133 -43 -150 -4 -16 -19 -68 -33 -115 -81 -272 -117 -399 -117
-413 0 -10 18 -21 53 -30 123 -35 325 -89 357 -97 19 -5 73 -19 120 -31 47
-12 103 -26 125 -30 22 -4 87 -17 145 -29 58 -12 123 -26 145 -30 22 -4 64
-13 93 -20 30 -7 58 -8 62 -4 4 5 22 83 39 174 41 211 49 252 67 327 24 104
38 93 -179 136 -105 22 -200 43 -210 49 -20 11 -20 44 2 141 16 73 28 90 59
84 59 -10 199 -38 232 -47 19 -4 109 -21 200 -36 191 -33 202 -39 190 -106 -5
-23 -16 -95 -25 -158 -9 -63 -20 -142 -25 -175 -5 -33 -14 -100 -20 -150 -6
-49 -15 -112 -20 -140 -5 -27 -12 -73 -15 -102 -8 -61 -20 -55 140 -73 55 -6
127 -15 160 -20 137 -21 625 -60 752 -60 l71 0 6 93 c18 320 27 509 23 513 -2
2 -91 9 -198 15 -107 6 -205 15 -218 20 -23 10 -23 11 -16 107 9 129 13 133
125 122 46 -5 184 -12 307 -16 189 -6 225 -10 238 -24 13 -14 15 -78 17 -431
l3 -414 150 0 c274 0 968 46 980 65 2 4 0 47 -6 96 -10 92 -26 265 -37 416 -4
47 -9 88 -12 91 -3 2 -61 -2 -130 -9 -69 -7 -164 -13 -212 -13 -106 -1 -108 1
-108 122 0 62 4 88 15 97 8 7 83 18 172 25 187 17 351 33 413 41 56 7 75 -10
83 -76 15 -113 28 -207 37 -268 17 -109 28 -178 52 -341 l22 -153 50 6 c289
37 928 163 1041 206 24 9 24 10 11 57 -7 26 -23 93 -36 148 -12 55 -28 120
-35 145 -7 25 -23 91 -36 148 -26 118 -13 110 -134 79 -61 -16 -215 -51 -271
-62 -43 -8 -59 14 -78 113 -23 112 -28 106 144 146 194 46 332 80 393 98 37
11 74 18 82 15 7 -3 18 -21 23 -39 9 -29 79 -262 132 -438 11 -36 37 -123 58
-195 l38 -130 30 1 c68 3 596 181 964 324 47 19 86 35 88 36 5 3 -217 557
-227 567 -5 4 -30 -1 -57 -11 -166 -67 -338 -132 -345 -132 -18 0 -72 140 -73
190 l-1 35 121 45 c67 25 139 53 160 62 22 9 101 42 177 74 119 50 140 56 152
43 7 -8 61 -117 120 -244 58 -126 114 -248 125 -270 75 -159 100 -215 100
-224 0 -27 63 -1 354 143 370 183 666 346 666 367 0 5 -17 38 -39 72 -21 34
-85 143 -141 242 -131 230 -123 221 -169 193 -20 -12 -103 -59 -185 -105 -133
-75 -150 -82 -165 -69 -25 23 -95 172 -88 188 3 8 34 30 69 48 89 46 362 205
425 247 65 43 62 44 147 -86 33 -53 97 -150 141 -218 44 -67 116 -179 160
-248 44 -68 86 -124 92 -122 50 9 859 587 912 651 11 13 8 21 -17 53 -17 21
-89 112 -160 203 -72 91 -143 182 -159 202 -15 20 -31 37 -35 38 -3 0 -29 -18
-56 -39 -193 -153 -286 -220 -298 -213 -22 12 -126 164 -121 176 3 7 49 45
103 86 55 41 168 130 252 198 177 143 148 142 261 11 305 -352 454 -519 463
-519 11 0 76 54 238 200 137 123 580 562 580 574 0 15 -408 409 -434 419 -18
8 -40 -10 -166 -137 -81 -83 -151 -145 -160 -144 -8 2 -46 36 -84 76 l-69 72
114 118 c63 64 163 170 223 235 60 64 113 117 118 117 5 0 55 -39 110 -88 56
-48 122 -105 148 -127 26 -22 93 -80 150 -130 173 -151 228 -195 242 -195 8 0
23 12 35 28 11 15 55 68 98 117 139 162 258 313 421 535 51 69 104 139 118
156 14 18 26 39 26 48 0 16 -45 52 -241 191 -186 132 -249 175 -258 175 -5 0
-21 -19 -36 -43 -70 -106 -211 -288 -228 -293 -13 -4 -30 5 -56 28 -20 19 -53
47 -73 63 -21 15 -38 33 -38 41 0 7 43 71 96 141 53 70 136 188 186 261 59 87
95 132 103 128 13 -5 470 -296 624 -398 41 -27 81 -46 88 -44 41 16 563 915
563 969 0 9 -33 32 -72 52 -232 119 -387 200 -415 217 -18 11 -40 18 -49 16
-9 -2 -57 -80 -109 -178 -52 -96 -100 -179 -108 -184 -11 -7 -37 3 -91 34
-119 68 -117 59 -46 186 34 60 100 187 147 282 93 186 94 187 156 155 18 -9
75 -35 127 -58 52 -24 205 -93 339 -154 134 -61 247 -111 251 -111 4 0 15 21
25 48 10 26 21 52 25 57 19 26 216 504 275 670 24 66 55 151 69 190 22 60 32
105 24 105 -5 0 -463 158 -493 170 -16 6 -44 14 -60 17 -30 5 -31 4 -57 -74
-15 -43 -39 -109 -53 -148 -15 -38 -32 -87 -39 -108 -22 -71 -32 -74 -127 -37
-46 17 -90 38 -98 45 -16 16 -18 9 65 240 25 72 65 186 88 255 34 103 45 126
62 128 20 3 256 -63 685 -192 123 -37 122 -37 143 37 10 34 24 82 32 107 61
202 224 914 211 926 -6 6 -150 35 -387 79 -80 15 -159 31 -177 35 -35 9 -53
-3 -53 -33 0 -11 -4 -36 -10 -56 -5 -20 -21 -97 -36 -171 -14 -74 -32 -141
-39 -149 -11 -11 -26 -10 -95 5 -45 9 -91 25 -103 34 -20 17 -20 17 -3 101 32
151 73 371 85 457 9 64 29 87 73 84 18 -1 204 -27 413 -57 208 -30 381 -52
383 -50 2 2 8 34 12 72 5 37 14 106 20 153 34 271 82 892 69 904 -6 6 -287 25
-460 31 l-155 5 -12 -202 c-16 -249 -10 -240 -134 -230 -121 10 -121 10 -109
153 5 63 13 202 17 309 3 107 11 201 16 208 8 9 106 12 429 12 328 0 419 3
420 13 9 199 -39 1098 -61 1120 -4 5 -48 4 -96 -2 -49 -5 -152 -15 -229 -21
-77 -6 -173 -16 -212 -22 -64 -9 -73 -13 -73 -32 0 -12 7 -103 16 -204 12
-135 14 -186 5 -196 -7 -8 -45 -16 -102 -20 -123 -9 -125 -8 -134 132 -6 93
-12 162 -42 444 -4 37 -2 63 6 71 6 8 37 17 69 21 66 7 95 11 462 65 151 23
281 41 288 41 11 0 12 13 7 63 -13 115 -80 499 -110 632 -8 33 -23 105 -34
160 -11 55 -24 114 -30 130 -5 17 -15 56 -22 88 -6 31 -13 57 -14 57 0 0 -55
-13 -121 -30 -65 -16 -195 -48 -289 -70 -93 -23 -176 -47 -183 -54 -10 -9 -10
-19 -3 -37 13 -29 69 -271 77 -331 7 -51 -2 -62 -61 -72 -22 -4 -60 -12 -85
-16 -40 -8 -47 -6 -67 15 -11 13 -24 43 -28 67 -8 54 -36 177 -77 333 -54 211
-53 204 -36 221 8 9 30 19 49 24 19 5 57 16 84 24 115 34 259 77 405 121 85
26 174 51 197 57 64 15 67 23 37 119 -55 183 -146 453 -208 619 -120 324 -131
350 -144 350 -17 0 -544 -209 -556 -221 -10 -9 -3 -36 32 -124 86 -214 104
-270 95 -284 -6 -9 -48 -30 -94 -47 -68 -26 -88 -30 -102 -20 -17 10 -36 55
-136 311 -15 39 -47 114 -71 168 -33 75 -41 103 -33 115 5 9 124 69 264 134
140 64 303 140 363 167 59 28 112 51 117 51 5 0 9 10 9 23 0 30 -281 589 -409
815 -101 177 -120 199 -147 173 -9 -9 -346 -206 -446 -260 -26 -14 -48 -32
-48 -39 0 -7 11 -29 24 -50 66 -106 177 -315 173 -326 -3 -8 -45 -35 -94 -61
-88 -47 -106 -49 -124 -14 -72 134 -222 393 -277 477 -33 51 -34 53 -17 72 10
11 163 113 339 227 177 113 329 214 340 223 17 17 13 25 -126 232 -80 117
-178 258 -219 313 -41 55 -83 112 -94 127 -46 63 -165 215 -185 236 -13 14
-26 19 -35 15 -11 -7 -80 -61 -391 -306 -41 -33 -74 -63 -74 -69 0 -5 27 -44
60 -86 161 -206 190 -247 188 -261 -3 -16 -155 -130 -175 -131 -6 0 -34 30
-61 68 -111 150 -315 406 -333 417 -24 15 -2 47 84 120 52 44 147 127 212 185
65 58 141 124 169 147 28 23 75 64 105 91 l54 49 -54 65 c-152 183 -709 758
-735 758 -11 0 -424 -435 -424 -446 0 -4 68 -72 150 -152 83 -79 150 -150 150
-157 0 -14 -144 -150 -159 -150 -5 0 -91 79 -192 175 -101 97 -209 199 -239
227 l-54 51 79 94 c43 51 99 116 124 144 25 27 82 92 126 144 44 51 108 125
143 164 35 39 68 79 73 88 11 21 -70 93 -418 368 -169 134 -404 309 -442 329
-13 7 -27 9 -31 4 -4 -4 -72 -98 -151 -208 -78 -110 -156 -217 -172 -238 l-30
-39 33 -26 c18 -15 65 -50 104 -77 162 -115 206 -150 206 -168 0 -16 -106
-157 -129 -172 -5 -3 -31 11 -58 32 -70 53 -305 221 -395 281 -42 28 -79 56
-83 62 -3 5 18 47 48 93 60 91 83 128 217 337 51 80 112 175 136 212 24 37 44
71 44 76 0 17 -305 206 -590 366 -170 96 -390 209 -394 204 -8 -9 -271 -524
-274 -534 -2 -6 48 -37 110 -69 140 -71 241 -129 256 -148 10 -11 1 -32 -41
-103 -29 -49 -60 -90 -69 -92 -8 -2 -44 14 -79 34 -35 20 -157 83 -270 140
-113 58 -214 112 -223 122 -17 20 -27 -3 179 442 29 63 65 143 79 177 14 34
35 78 46 98 28 49 26 71 -7 83 -16 6 -121 51 -234 100 -247 107 -734 292 -771
292 -8 0 -21 -20 -30 -47 -9 -27 -43 -124 -76 -218 -33 -93 -70 -199 -82 -233
-12 -35 -18 -67 -14 -71 5 -4 88 -36 184 -71 96 -34 183 -70 193 -78 13 -11
17 -25 13 -42 -7 -37 -63 -155 -80 -169 -11 -9 -44 0 -157 42 -79 29 -213 76
-297 103 -92 29 -157 56 -163 65 -5 11 -2 37 10 75 10 33 30 97 44 144 13 47
34 117 46 155 11 39 27 95 35 125 8 30 31 108 50 172 20 64 36 123 36 130 0
13 -56 36 -150 60 -19 5 -51 14 -70 19 -38 11 -174 45 -230 58 -19 5 -69 17
-110 28 -41 11 -124 30 -185 42 -60 12 -126 26 -145 31 -102 25 -201 43 -207
37 -3 -4 -9 -26 -13 -49 -4 -24 -16 -88 -28 -143 -11 -55 -30 -154 -42 -220
-12 -66 -26 -132 -30 -147 -5 -15 -6 -29 -2 -32 4 -2 63 -16 132 -30 69 -15
157 -34 197 -42 92 -19 100 -28 84 -102 -16 -71 -32 -123 -45 -140 -10 -14
-21 -13 -111 7 -71 16 -297 59 -400 76 -150 25 -148 24 -142 93 3 31 8 75 12
97 3 22 15 108 26 190 23 171 55 390 65 452 7 47 10 46 -96 58 -30 3 -86 10
-125 15 -84 11 -422 45 -590 59 -151 13 -287 17 -301 9 -5 -4 -11 -42 -12 -85
-1 -43 -7 -174 -14 -291 -9 -177 -9 -215 2 -222 7 -4 98 -11 202 -15 243 -10
236 -5 219 -136 -17 -132 -12 -129 -186 -113 -77 7 -213 13 -302 13 -149 1
-165 3 -183 21 -19 19 -20 33 -20 435 l0 415 -37 -2 c-21 -1 -155 -5 -298 -9z
m143 -191 c9 -9 12 -118 12 -429 l0 -417 268 -6 c251 -6 647 -30 719 -42 23
-4 34 -2 37 7 3 8 10 70 16 139 13 150 27 300 36 396 l7 71 -94 6 c-215 14
-334 28 -348 42 -10 10 -12 35 -6 115 7 91 9 102 29 109 41 15 675 -49 704
-72 15 -12 15 -42 2 -99 -6 -24 -29 -173 -52 -333 -52 -369 -56 -399 -52 -406
2 -4 41 -12 86 -18 46 -7 106 -16 133 -21 28 -5 82 -14 120 -20 169 -28 359
-67 563 -116 57 -13 107 -22 111 -19 5 2 11 21 14 42 7 41 13 66 51 223 24 98
62 257 73 306 4 18 -2 23 -39 32 -75 19 -251 60 -310 73 -86 18 -90 25 -67
137 10 52 22 98 25 104 7 11 80 5 144 -12 19 -5 94 -23 165 -40 209 -49 385
-98 401 -110 19 -16 19 -18 -16 -129 -95 -310 -193 -640 -197 -667 l-5 -30
109 -33 c191 -57 483 -157 672 -230 101 -39 185 -70 186 -69 14 17 225 547
225 564 0 6 -30 23 -67 37 -277 105 -328 126 -336 138 -5 9 4 50 25 109 27 79
37 96 55 98 13 2 67 -13 120 -34 54 -20 121 -45 149 -55 28 -11 127 -52 220
-92 119 -51 170 -77 172 -90 2 -10 -21 -70 -52 -133 -31 -64 -56 -117 -56
-119 0 -3 -25 -57 -55 -120 -30 -64 -55 -118 -55 -120 0 -4 -85 -186 -110
-236 l-20 -39 272 -134 c150 -74 305 -152 343 -174 183 -101 262 -146 280
-158 28 -20 31 -19 58 29 44 77 173 301 225 391 29 49 52 92 52 97 0 8 -144
93 -292 173 -49 26 -88 54 -88 61 0 13 74 159 92 183 6 6 16 12 22 12 12 0
325 -177 466 -263 41 -25 90 -54 108 -63 56 -28 56 -42 3 -125 -27 -41 -130
-200 -230 -353 -100 -154 -178 -282 -174 -286 4 -4 99 -68 210 -143 193 -129
584 -415 598 -437 15 -24 38 -3 136 121 57 73 141 179 187 236 45 58 82 109
82 113 0 8 -80 73 -264 213 -42 32 -76 65 -76 73 0 17 107 163 125 170 23 9
565 -415 565 -442 0 -8 -24 -40 -52 -72 -29 -32 -91 -103 -138 -157 -47 -54
-103 -119 -126 -144 -23 -25 -85 -98 -139 -161 l-98 -115 58 -50 c157 -135
415 -378 548 -515 132 -136 149 -150 165 -138 32 25 432 411 432 417 0 3 -68
76 -150 161 -83 85 -149 160 -148 166 6 22 132 154 148 154 9 0 102 -89 207
-197 238 -248 293 -309 293 -328 0 -8 -22 -31 -49 -52 -27 -21 -146 -123 -266
-228 -119 -104 -239 -207 -266 -228 -27 -21 -49 -45 -49 -54 0 -8 26 -45 58
-82 174 -197 461 -561 546 -693 30 -46 19 -51 298 152 65 47 145 104 178 128
l61 43 -18 30 c-10 17 -66 95 -125 174 -60 79 -108 150 -108 158 0 18 143 137
164 137 20 0 178 -212 403 -540 l24 -35 -29 -25 c-16 -14 -93 -65 -171 -115
-78 -49 -185 -118 -239 -153 -53 -35 -136 -88 -184 -119 -49 -31 -88 -61 -88
-66 0 -6 40 -74 89 -151 141 -224 194 -314 302 -514 56 -103 108 -197 116
-210 l14 -22 147 76 c294 153 377 197 390 207 9 7 -7 46 -70 166 -45 86 -90
168 -101 182 -10 15 -17 35 -15 44 4 22 166 125 184 118 29 -11 340 -613 330
-638 -6 -16 -81 -53 -321 -162 -403 -183 -435 -198 -435 -214 0 -9 16 -52 36
-95 97 -211 194 -449 268 -659 76 -213 71 -206 131 -180 19 7 88 32 153 55
401 139 367 124 366 156 -1 28 -49 169 -109 318 -27 66 -27 69 -9 86 11 10 55
32 99 49 73 28 80 29 97 14 10 -9 22 -30 27 -47 5 -17 24 -69 41 -116 18 -47
62 -174 99 -283 62 -184 66 -200 52 -217 -10 -12 -88 -39 -206 -73 -159 -46
-415 -121 -540 -158 -62 -19 -62 -13 -11 -189 25 -89 66 -244 90 -343 42 -174
54 -229 92 -414 19 -91 21 -92 93 -74 32 8 79 18 251 52 25 4 97 18 160 30 63
12 118 26 121 31 4 7 -48 282 -78 404 -6 27 11 39 77 54 30 6 70 17 88 23 40
14 61 -3 72 -60 5 -21 15 -72 24 -113 21 -96 29 -137 65 -344 35 -197 35 -200
-52 -211 -29 -3 -144 -20 -257 -36 -113 -16 -257 -36 -320 -45 -63 -9 -129
-18 -147 -20 -17 -3 -33 -10 -35 -17 -3 -6 5 -86 17 -177 29 -219 44 -361 64
-625 l16 -220 25 1 c14 1 104 5 200 8 256 9 375 17 387 24 8 5 7 67 -2 212
-12 188 -12 206 3 222 20 19 168 40 193 27 22 -11 26 -44 38 -319 6 -129 13
-267 15 -306 4 -47 2 -74 -6 -82 -9 -9 -125 -12 -435 -12 l-423 0 0 -264 c0
-146 -7 -348 -15 -452 -9 -104 -16 -220 -18 -259 l-2 -69 105 -12 c207 -22
356 -35 435 -37 l80 -2 6 75 c4 41 10 133 14 203 11 169 10 168 132 159 51 -4
98 -13 104 -19 13 -13 12 -34 -33 -478 -22 -222 -31 -252 -73 -241 -11 3 -69
13 -130 21 -60 9 -148 22 -195 30 -47 7 -123 18 -170 25 -47 6 -110 15 -140
20 -30 5 -81 12 -112 16 -65 7 -60 15 -77 -111 -6 -38 -15 -99 -20 -135 -12
-76 -78 -429 -91 -480 -4 -19 -13 -55 -18 -80 -6 -25 -18 -80 -28 -122 -10
-43 -15 -81 -11 -84 3 -3 34 -13 69 -21 118 -27 133 -30 283 -66 83 -20 166
-41 185 -47 64 -19 64 -18 89 93 13 56 27 116 31 132 5 17 16 65 26 108 9 45
22 81 30 84 23 9 175 -20 196 -37 18 -15 18 -18 -7 -130 -37 -164 -74 -320
-84 -355 -5 -16 -19 -67 -31 -112 -12 -45 -28 -87 -36 -94 -11 -9 -36 -5 -111
19 -54 17 -163 49 -243 72 -80 22 -165 47 -190 55 -105 34 -248 75 -262 75 -9
0 -21 -22 -32 -57 -93 -307 -181 -562 -273 -796 -40 -101 -45 -119 -32 -131 8
-7 52 -28 99 -46 47 -18 99 -39 115 -45 204 -85 314 -128 333 -129 21 -1 30
14 83 149 33 83 64 167 71 187 6 21 19 45 29 54 17 15 24 14 105 -14 48 -17
92 -38 97 -47 6 -12 4 -29 -6 -54 -9 -20 -35 -85 -58 -146 -82 -216 -184 -448
-201 -459 -13 -8 -26 -7 -50 6 -89 45 -712 328 -724 328 -8 0 -14 -5 -14 -12
0 -21 -278 -573 -370 -733 -65 -113 -89 -164 -83 -174 7 -11 158 -102 373
-223 19 -11 60 -35 91 -54 31 -19 59 -34 62 -34 7 0 99 155 162 275 27 50 54
95 62 102 11 9 32 2 96 -32 45 -24 87 -51 92 -60 12 -19 -4 -51 -171 -337
-125 -213 -168 -278 -184 -278 -4 0 -57 31 -117 70 -118 75 -234 149 -261 165
-24 15 -250 162 -291 191 -25 17 -38 20 -47 13 -7 -6 -68 -93 -135 -192 -67
-100 -138 -204 -158 -232 -101 -136 -201 -267 -253 -332 -32 -40 -58 -76 -58
-80 0 -5 64 -57 141 -118 77 -60 184 -145 237 -187 53 -43 104 -77 112 -77 15
0 63 59 204 246 38 51 73 93 79 93 11 0 177 -119 177 -127 0 -5 -33 -49 -178
-238 -108 -142 -263 -325 -275 -325 -7 0 -46 31 -88 68 -41 37 -169 148 -284
247 -115 99 -219 190 -231 203 -13 13 -31 22 -41 20 -10 -2 -75 -66 -143 -143
-68 -77 -224 -241 -347 -365 -123 -124 -223 -229 -223 -235 0 -14 420 -447
430 -443 5 2 77 68 160 148 84 80 157 147 162 149 14 5 148 -130 148 -149 0
-25 -480 -490 -506 -490 -7 0 -52 46 -101 102 -48 56 -151 174 -228 262 -77
89 -160 185 -184 214 -23 28 -48 52 -54 52 -7 0 -68 -48 -137 -107 -173 -147
-338 -278 -523 -413 -86 -63 -157 -120 -157 -126 0 -7 17 -34 38 -61 21 -26
98 -132 171 -235 73 -103 139 -192 146 -198 10 -8 32 4 91 48 184 137 273 202
278 202 10 0 129 -154 130 -168 1 -19 -78 -81 -333 -261 -180 -127 -235 -162
-250 -159 -15 3 -113 151 -422 637 -20 31 -42 57 -50 59 -8 1 -43 -16 -79 -39
-36 -23 -87 -57 -115 -74 -81 -52 -304 -185 -310 -185 -3 0 -22 -11 -43 -23
-38 -24 -127 -73 -261 -143 -40 -21 -75 -43 -78 -50 -3 -9 92 -204 117 -239 4
-5 40 -74 80 -153 39 -79 78 -146 85 -149 13 -5 323 155 356 183 30 27 47 14
93 -69 14 -26 33 -58 41 -71 9 -13 13 -30 9 -39 -9 -24 -581 -327 -617 -327
-21 0 -40 27 -77 110 -18 41 -62 138 -97 215 -36 77 -73 158 -83 180 -10 22
-35 76 -55 120 -20 44 -41 90 -46 103 -5 12 -15 25 -23 28 -8 3 -58 -15 -112
-39 -236 -107 -454 -196 -649 -267 -131 -47 -200 -77 -198 -86 1 -5 20 -61 42
-124 117 -335 153 -436 159 -442 7 -7 303 93 377 127 40 19 54 4 95 -94 35
-86 36 -93 13 -113 -20 -16 -41 -24 -400 -147 -251 -85 -253 -86 -271 -66 -17
18 -38 84 -142 450 -47 166 -100 338 -105 343 -4 5 -103 -21 -235 -60 -61 -18
-155 -42 -325 -83 -38 -10 -152 -34 -253 -55 -101 -21 -185 -40 -188 -42 -2
-3 20 -128 50 -279 30 -151 56 -285 58 -299 2 -19 9 -25 28 -24 32 1 324 61
369 75 45 15 54 3 82 -104 28 -106 24 -117 -52 -134 -179 -42 -558 -113 -600
-113 -37 0 -59 28 -59 76 0 24 -4 65 -9 91 -6 26 -19 120 -31 208 -11 88 -27
201 -35 250 -7 50 -17 113 -20 140 -3 28 -10 56 -14 63 -5 9 -76 3 -286 -22
-270 -33 -553 -56 -663 -56 -63 0 -95 -14 -88 -38 3 -9 10 -143 17 -297 6
-154 15 -283 18 -287 6 -7 276 5 377 17 66 7 77 -8 85 -111 10 -121 10 -121
-151 -133 -69 -6 -225 -13 -348 -17 -214 -7 -223 -6 -228 12 -3 10 -6 204 -7
429 l-2 410 -280 6 c-276 7 -518 21 -665 38 -41 5 -78 6 -82 3 -4 -4 -12 -59
-17 -122 -6 -63 -16 -173 -23 -245 -7 -71 -12 -157 -13 -190 l0 -60 85 -7 c47
-4 141 -12 208 -16 82 -6 128 -14 137 -23 21 -22 8 -207 -15 -219 -18 -9 -179
2 -510 36 -174 18 -200 27 -200 70 0 13 9 83 20 156 11 73 27 180 36 238 8 58
19 132 24 165 5 33 14 97 21 141 7 45 10 88 7 95 -4 10 -55 21 -164 37 -88 13
-177 28 -199 32 -22 5 -71 14 -110 20 -97 16 -427 90 -521 116 -23 6 -23 5
-79 -231 -15 -60 -39 -163 -56 -229 -16 -65 -29 -124 -29 -131 0 -11 122 -44
362 -96 67 -15 72 -24 59 -108 -13 -80 -23 -112 -42 -127 -15 -12 -25 -10
-339 67 -91 23 -181 45 -200 49 -143 35 -160 42 -160 68 0 9 21 85 46 167 25
83 55 182 66 220 10 39 23 85 29 103 5 17 13 47 18 65 6 17 24 79 41 136 17
57 28 107 23 111 -4 4 -44 17 -88 30 -190 54 -636 207 -730 250 -74 34 -126
51 -140 48 -11 -2 -28 -30 -45 -73 -15 -38 -64 -161 -109 -271 -44 -111 -81
-209 -81 -217 0 -8 18 -21 43 -29 123 -43 344 -131 356 -143 11 -11 9 -25 -14
-92 -37 -105 -50 -126 -78 -117 -53 15 -465 179 -557 221 -98 44 -96 35 -25
191 79 173 89 196 170 372 79 170 115 251 115 257 0 2 -48 27 -107 55 -195 91
-464 228 -635 325 -93 52 -175 92 -183 89 -8 -3 -23 -22 -33 -43 -11 -21 -54
-96 -96 -167 -42 -70 -76 -130 -76 -131 0 -2 -22 -41 -50 -87 -27 -46 -50 -88
-50 -93 0 -6 10 -17 23 -24 54 -35 199 -116 270 -153 43 -22 81 -46 83 -53 6
-15 -54 -138 -84 -175 l-21 -25 -53 27 c-138 72 -475 270 -536 315 -20 15 -31
31 -28 39 3 8 48 78 99 157 89 135 129 196 234 360 25 39 62 96 80 124 19 29
33 57 31 62 -1 5 -88 66 -193 136 -178 120 -483 342 -586 427 -25 21 -50 38
-56 38 -6 0 -27 -21 -46 -48 -20 -26 -59 -76 -87 -112 -28 -36 -68 -87 -89
-115 -21 -27 -66 -84 -100 -125 -34 -41 -60 -81 -59 -89 2 -8 75 -69 162 -136
88 -66 164 -128 170 -137 7 -13 1 -28 -30 -70 -22 -29 -47 -65 -57 -80 -10
-16 -24 -28 -33 -28 -22 0 -395 287 -522 401 l-43 39 75 88 c41 48 165 191
275 317 111 127 201 235 201 241 0 7 -30 37 -67 69 -126 107 -377 342 -528
494 -82 84 -154 150 -161 149 -14 -4 -444 -410 -444 -420 0 -12 218 -243 262
-278 21 -17 38 -36 38 -41 0 -20 -132 -159 -150 -159 -16 0 -87 71 -418 420
-39 41 -72 83 -72 92 0 9 64 72 142 140 78 68 167 146 198 173 52 47 198 172
264 228 l30 24 -25 30 c-13 17 -78 95 -144 174 -66 79 -143 173 -170 207 -28
35 -63 81 -80 102 -16 20 -73 96 -125 168 -52 73 -99 132 -103 132 -11 0 -479
-334 -495 -353 -12 -14 33 -82 184 -283 30 -40 54 -78 54 -87 0 -12 -148 -137
-163 -137 -6 0 -88 103 -137 174 -19 26 -44 61 -55 76 -162 226 -225 319 -225
332 0 9 123 91 540 358 80 51 151 98 159 105 11 11 8 20 -16 57 -123 179 -369
601 -465 796 -11 24 -27 46 -34 49 -7 2 -59 -20 -116 -50 -56 -30 -175 -91
-263 -137 -88 -45 -164 -86 -168 -90 -9 -8 46 -118 144 -291 27 -48 49 -93 49
-101 0 -21 -171 -122 -188 -111 -17 10 -84 132 -223 407 -93 183 -109 221 -97
232 12 12 286 143 418 199 30 13 103 46 161 74 59 27 123 57 143 65 20 8 36
19 36 25 0 5 -14 40 -31 78 -109 240 -306 731 -345 861 -4 15 -34 16 -71 1
-32 -12 -404 -143 -476 -166 -31 -11 -47 -22 -47 -33 0 -17 23 -84 100 -288
31 -82 39 -116 32 -125 -6 -7 -50 -28 -98 -47 l-87 -34 -17 22 c-29 36 -234
626 -226 649 8 21 -4 16 451 148 329 95 355 104 355 123 0 9 -9 46 -20 82 -21
71 -105 380 -119 445 -5 22 -14 60 -20 85 -20 84 -60 275 -66 317 -11 69 -19
74 -95 58 -90 -20 -140 -30 -325 -65 -88 -17 -171 -33 -184 -36 -22 -5 -23 -9
-18 -52 5 -41 54 -284 72 -352 9 -37 -16 -54 -113 -75 -72 -16 -85 -17 -96 -4
-19 20 -69 248 -120 547 -28 163 -30 160 112 178 93 12 388 53 522 73 36 6 88
13 115 16 78 10 79 12 67 91 -44 282 -82 683 -82 869 0 41 -5 77 -10 80 -10 6
-380 -8 -547 -21 l-73 -6 0 -71 c0 -40 5 -137 11 -217 9 -128 8 -146 -6 -156
-9 -6 -54 -15 -101 -19 -71 -6 -89 -4 -102 8 -28 28 -56 687 -30 703 7 4 197
9 422 10 226 1 414 2 417 3 3 0 9 140 12 309 3 170 14 402 23 516 9 114 15
209 13 211 -6 6 -407 46 -515 52 l-101 5 -6 -43 c-3 -24 -11 -114 -17 -199 -7
-85 -16 -165 -21 -177 -8 -22 -15 -23 -99 -23 -77 0 -93 3 -110 20 -17 17 -20
29 -15 68 2 26 9 103 15 172 26 308 46 454 65 470 9 8 51 5 151 -10 186 -27
180 -26 414 -60 113 -16 220 -32 237 -36 38 -8 36 -11 52 106 17 121 31 209
41 255 4 22 13 72 20 110 21 128 89 432 111 503 6 19 9 36 6 38 -5 5 -181 49
-417 104 -74 17 -145 35 -157 40 -35 14 -34 17 -103 -283 -11 -49 -20 -97 -20
-107 0 -35 -24 -43 -92 -30 -35 7 -78 15 -96 17 -47 7 -52 31 -30 127 102 430
134 554 151 574 16 20 25 18 337 -76 467 -140 483 -144 491 -130 5 7 9 19 9
25 0 13 28 104 112 363 37 114 154 431 192 522 9 21 16 44 16 52 0 8 -31 27
-77 46 -43 17 -87 35 -98 40 -11 5 -74 30 -140 55 -66 26 -145 58 -176 71 -31
13 -63 24 -72 24 -10 0 -28 -32 -53 -97 -20 -54 -50 -129 -65 -168 -16 -38
-29 -77 -29 -86 0 -8 -10 -25 -23 -37 l-23 -22 -85 31 c-46 17 -90 36 -98 44
-12 11 -5 38 49 177 34 90 87 220 116 289 30 69 54 130 54 135 0 5 12 24 27
42 l28 33 350 -161 c193 -89 365 -168 383 -176 l33 -15 43 94 c53 113 245 498
256 512 4 6 22 37 40 70 42 76 71 128 104 185 14 25 26 50 26 56 0 10 -174
114 -488 292 -25 14 -47 21 -52 16 -9 -10 -112 -190 -123 -214 -29 -67 -87
-155 -103 -157 -10 -2 -55 16 -99 40 -92 48 -100 64 -61 126 14 22 26 42 26
45 0 4 79 142 157 276 89 152 128 213 144 223 15 9 85 -33 444 -268 177 -115
272 -175 278 -175 4 0 51 66 105 148 189 284 237 351 420 585 83 106 84 109
66 127 -54 51 -460 360 -473 360 -9 -1 -52 -49 -96 -107 -44 -59 -102 -135
-128 -171 -31 -41 -53 -62 -62 -58 -23 8 -175 117 -175 124 0 6 126 174 245
328 65 84 188 229 201 237 14 8 66 -34 339 -273 187 -164 313 -270 318 -270 2
0 71 75 153 168 82 92 240 259 352 371 111 112 201 208 200 212 -6 15 -392
420 -410 430 -17 9 -33 -3 -121 -86 -56 -54 -125 -121 -152 -151 -28 -30 -55
-54 -60 -54 -6 0 -46 33 -89 73 -69 64 -78 75 -68 93 5 10 86 91 179 179 92
88 203 193 245 234 46 44 83 71 91 68 12 -4 153 -162 297 -332 53 -62 155
-180 216 -247 23 -27 47 -48 53 -48 7 0 58 39 115 88 250 212 426 350 644 506
28 21 52 42 52 47 0 5 -23 39 -51 76 -27 38 -105 144 -172 238 -68 93 -130
171 -140 173 -9 2 -38 -13 -64 -33 -222 -168 -275 -205 -292 -205 -24 0 -143
153 -135 175 11 28 548 408 579 409 20 1 40 -26 175 -237 239 -374 283 -443
294 -454 9 -10 37 4 128 62 220 140 479 289 721 415 26 14 47 29 47 33 0 5
-38 81 -84 170 -47 89 -108 208 -138 264 -29 57 -58 103 -64 103 -12 0 -290
-144 -352 -182 -41 -25 -46 -22 -107 84 -35 61 -45 86 -38 97 24 39 595 336
631 329 10 -2 46 -68 93 -173 251 -552 267 -585 284 -585 8 0 86 32 172 71
194 87 351 151 593 240 120 44 184 72 183 81 -1 7 -16 51 -33 98 -17 47 -40
110 -50 140 -53 157 -112 316 -119 323 -7 7 -49 -7 -271 -90 -117 -43 -143
-49 -157 -31 -16 19 -73 160 -73 179 0 23 18 36 81 58 30 10 86 30 124 45 81
31 429 147 462 154 26 5 40 -21 72 -133 68 -235 115 -399 135 -465 13 -41 31
-105 42 -142 21 -77 21 -77 115 -49 227 67 502 135 769 189 l135 27 -3 30 c-2
17 -23 129 -47 250 -24 121 -46 238 -50 260 -10 63 -14 67 -71 55 -27 -5 -107
-22 -179 -36 -71 -15 -140 -30 -153 -35 -31 -12 -60 5 -68 39 -3 15 -13 57
-22 95 -21 86 -14 98 64 114 32 6 136 27 229 46 94 19 218 42 277 52 103 17
109 17 127 1 12 -11 22 -38 26 -69 4 -29 25 -178 47 -332 22 -154 44 -311 49
-349 5 -38 11 -72 14 -74 5 -5 133 9 255 28 124 20 603 60 709 60 l64 0 -8
178 c-4 97 -11 236 -14 307 l-6 130 -105 -3 c-58 -2 -154 -7 -215 -12 -67 -5
-114 -5 -121 1 -6 5 -17 53 -24 106 -13 94 -13 97 8 114 24 19 97 27 347 39
254 12 360 11 373 -2z"/>
<path d="M12300 23620 c-189 -8 -333 -18 -550 -40 -122 -12 -516 -67 -575 -80
-22 -5 -69 -14 -105 -20 -173 -30 -682 -149 -770 -179 -14 -5 -59 -19 -100
-31 -1021 -303 -1977 -792 -2815 -1440 -193 -149 -202 -156 -306 -245 -475
-403 -893 -839 -1267 -1319 -34 -45 -80 -106 -102 -136 -22 -30 -67 -93 -101
-140 -169 -231 -360 -534 -548 -870 -64 -114 -231 -451 -295 -595 -37 -82 -76
-169 -86 -192 -36 -78 -158 -398 -209 -548 -74 -214 -204 -653 -224 -755 -2
-14 -15 -68 -27 -120 -12 -52 -26 -113 -30 -135 -4 -22 -17 -85 -28 -140 -67
-335 -116 -705 -144 -1090 -16 -220 -16 -931 0 -1140 21 -264 52 -560 72 -680
6 -33 24 -143 41 -245 17 -102 37 -212 45 -245 7 -33 27 -125 45 -205 39 -181
107 -438 161 -605 11 -33 32 -100 48 -150 137 -431 389 -1013 621 -1435 22
-41 53 -97 68 -125 72 -130 323 -532 404 -645 95 -133 298 -405 361 -485 787
-987 1779 -1791 2905 -2355 525 -263 1008 -447 1621 -618 93 -26 386 -97 460
-111 30 -6 78 -16 105 -21 50 -11 172 -33 275 -51 216 -37 551 -76 855 -100
161 -13 918 -17 1050 -6 44 4 114 10 155 13 217 15 518 52 790 94 109 17 168
29 340 65 96 21 186 40 200 42 14 3 84 20 155 39 415 105 736 210 1141 374
791 319 1623 814 2243 1334 46 39 100 84 120 101 310 255 888 846 1091 1115
18 25 38 50 44 55 49 46 279 357 429 582 405 605 657 1093 940 1823 121 312
284 879 356 1240 12 58 25 125 31 150 23 108 65 381 84 540 32 268 36 311 48
485 17 236 17 999 0 1210 -27 346 -68 673 -114 905 -11 58 -24 128 -28 155 -5
28 -18 93 -29 145 -12 52 -26 117 -31 143 -5 27 -12 52 -15 57 -3 5 -9 28 -14
52 -12 58 -63 249 -101 378 -215 730 -541 1456 -948 2110 -166 266 -405 607
-562 801 -203 251 -286 347 -484 558 -601 642 -1271 1169 -2060 1620 -158 90
-636 332 -731 369 -27 11 -104 43 -170 72 -66 28 -136 57 -155 64 -19 7 -100
38 -180 68 -526 201 -1215 378 -1755 453 -313 43 -362 48 -690 75 -170 14
-724 19 -955 10z m-641 -820 c-31 -233 -35 -585 -8 -733 69 -378 218 -666 476
-918 187 -183 411 -332 658 -439 28 -11 59 -25 70 -30 46 -21 172 -69 195 -75
14 -3 34 -10 45 -15 11 -4 47 -16 80 -25 33 -9 71 -20 85 -25 14 -5 70 -18
125 -30 55 -12 116 -25 135 -30 158 -37 499 -75 517 -57 4 4 2 22 -4 40 -13
37 -46 203 -64 327 -16 110 -16 444 0 535 42 236 52 276 114 435 45 117 114
254 170 335 168 245 417 482 662 631 58 35 79 44 88 35 9 -9 7 -20 -7 -44 -46
-79 -62 -108 -106 -197 -99 -198 -181 -410 -219 -570 -6 -25 -16 -61 -21 -80
-37 -140 -45 -218 -44 -465 l0 -250 38 -145 c61 -236 131 -394 260 -589 74
-110 79 -116 187 -240 168 -193 414 -386 666 -524 26 -14 71 -23 74 -14 0 1 2
29 4 62 8 110 26 260 36 291 5 17 9 41 9 54 0 59 72 322 132 485 174 469 484
858 913 1146 175 118 264 147 203 67 -194 -258 -386 -616 -483 -903 -51 -151
-97 -349 -115 -490 -40 -326 -26 -589 47 -895 20 -86 52 -191 64 -212 5 -10 9
-26 9 -36 0 -10 4 -22 8 -27 5 -6 17 -32 27 -60 21 -60 67 -163 99 -225 31
-62 114 -213 123 -226 5 -6 30 -42 56 -80 119 -172 204 -274 228 -274 12 0 19
12 24 48 3 26 10 63 15 82 42 165 55 213 77 279 13 42 28 85 33 96 4 11 19 47
31 80 38 97 146 312 212 420 111 184 385 531 411 522 12 -4 12 -31 -3 -97 -21
-102 -33 -169 -41 -242 -5 -43 -11 -82 -15 -88 -13 -20 -29 -311 -29 -505 0
-203 14 -453 33 -580 6 -38 15 -110 21 -160 9 -79 24 -177 50 -325 6 -37 26
-135 63 -320 3 -14 15 -63 27 -110 11 -47 34 -139 51 -205 17 -66 36 -142 44
-170 8 -27 18 -68 24 -90 5 -22 14 -58 20 -80 5 -22 15 -85 21 -140 6 -55 15
-138 20 -185 6 -47 13 -168 15 -269 4 -136 10 -190 21 -210 17 -31 74 -112
346 -494 218 -306 300 -417 309 -417 17 0 62 114 120 307 17 54 40 175 46 236
3 31 9 60 13 62 13 8 43 -41 104 -170 77 -161 125 -262 244 -505 127 -261 180
-374 199 -425 9 -22 22 -47 30 -56 7 -8 13 -19 13 -24 0 -4 12 -33 26 -64 14
-31 32 -69 39 -86 8 -16 26 -57 40 -90 15 -33 43 -98 62 -145 34 -84 43 -106
68 -165 24 -57 71 -202 96 -295 34 -131 29 -264 -20 -515 -9 -48 -53 -194 -86
-283 -21 -58 -97 -207 -133 -260 -42 -61 -153 -183 -164 -180 -6 2 -20 35 -33
73 -31 93 -84 217 -100 234 -12 12 -20 7 -59 -31 -95 -95 -261 -205 -386 -255
-30 -12 -101 -34 -157 -48 -94 -24 -114 -26 -270 -22 -204 4 -343 31 -343 67
0 4 31 23 69 43 75 39 203 124 291 193 106 82 324 319 353 384 4 8 17 31 29
50 44 73 78 150 78 178 0 24 -14 42 -65 91 -36 34 -78 69 -93 78 -33 21 -95
68 -140 105 -18 16 -41 28 -50 28 -10 0 -36 -18 -57 -41 -106 -109 -314 -231
-460 -270 -81 -21 -272 -47 -355 -48 -80 -1 -77 10 31 142 138 168 205 271
297 455 29 59 49 109 45 118 -6 15 -186 154 -199 154 -4 0 -21 12 -40 28 -18
15 -51 41 -74 57 -23 17 -56 42 -74 58 -38 30 -83 36 -93 11 -28 -72 -191
-252 -298 -329 -34 -24 -90 -55 -125 -70 -104 -44 -250 -69 -265 -46 -3 6 11
35 30 66 35 54 107 198 133 266 8 19 18 43 23 54 15 34 68 204 75 243 4 20 10
42 14 47 16 21 21 90 8 106 -7 9 -51 44 -98 77 -47 34 -96 69 -109 79 -13 10
-34 25 -46 33 -13 8 -68 47 -122 85 -160 115 -214 153 -292 205 l-75 50 -107
0 c-101 0 -158 -10 -290 -49 -57 -17 -157 -74 -223 -126 -64 -50 -159 -160
-202 -232 -24 -41 -24 -43 -6 -60 11 -10 49 -36 86 -58 37 -22 86 -53 109 -70
24 -16 54 -36 67 -44 26 -15 171 -120 281 -205 293 -225 608 -554 790 -826
240 -358 392 -746 452 -1150 14 -99 14 -602 0 -710 -15 -112 -69 -351 -94
-419 -11 -30 -18 -60 -15 -68 3 -7 1 -13 -4 -13 -5 0 -7 -7 -4 -15 4 -8 1 -15
-5 -15 -6 0 -10 -3 -10 -7 3 -19 -2 -33 -12 -33 -10 0 -10 5 11 110 25 126 31
208 31 421 0 129 -5 263 -11 299 -46 275 -55 311 -123 515 -60 182 -168 397
-289 578 -128 192 -192 270 -388 470 -149 153 -221 216 -442 382 -177 134
-529 355 -564 355 -22 0 -27 -43 -20 -163 9 -153 24 -269 53 -422 14 -71 29
-150 33 -175 5 -25 24 -106 44 -180 19 -74 38 -146 42 -160 15 -63 37 -87 108
-123 125 -62 172 -71 351 -71 122 0 177 4 233 18 45 12 77 15 82 10 25 -25
-136 -233 -227 -294 -93 -63 -209 -110 -272 -110 -53 0 -81 -10 -81 -29 0 -9
10 -45 22 -81 26 -72 83 -138 140 -160 18 -6 42 -16 53 -20 31 -13 104 -28
182 -40 225 -32 645 21 794 100 11 7 20 5 28 -4 27 -32 -162 -266 -279 -345
-57 -39 -166 -94 -210 -106 -14 -3 -56 -15 -95 -26 -54 -14 -104 -19 -212 -19
-108 0 -143 -3 -143 -12 0 -7 23 -48 50 -90 28 -43 50 -83 50 -91 0 -20 -67
-80 -135 -120 -80 -47 -175 -77 -244 -77 -71 0 -262 36 -316 59 -11 5 -56 23
-100 41 -44 18 -87 39 -96 47 -8 7 -19 13 -22 13 -26 0 -260 166 -255 181 2 6
30 21 63 34 85 34 147 102 170 187 16 61 16 66 -5 147 -50 198 -129 354 -348
686 -47 72 -115 171 -152 220 -36 50 -74 103 -85 119 -30 43 -47 66 -207 277
-404 534 -413 545 -558 764 -67 100 -150 259 -150 286 0 8 11 48 24 89 55 173
77 322 78 524 0 165 -11 278 -39 376 -82 294 -197 495 -397 693 -158 156 -255
229 -421 315 -249 128 -474 182 -764 182 -235 0 -357 -20 -548 -89 -364 -130
-646 -385 -812 -733 -28 -60 -51 -113 -51 -118 0 -6 -4 -18 -9 -28 -15 -29
-29 -82 -52 -192 -26 -126 -31 -402 -9 -540 33 -214 72 -372 133 -546 86 -244
204 -491 347 -724 47 -77 99 -157 141 -215 27 -38 63 -89 79 -113 16 -23 34
-48 40 -55 5 -6 63 -77 127 -157 126 -155 438 -478 562 -581 398 -331 660
-501 1026 -665 182 -81 434 -152 575 -161 96 -6 127 -17 110 -38 -6 -7 -32
-18 -58 -25 -26 -6 -60 -17 -77 -24 -55 -24 -202 -59 -380 -90 -177 -32 -560
-29 -748 4 -160 29 -293 59 -377 85 -113 36 -208 68 -235 80 -142 61 -315 144
-370 176 -37 21 -71 39 -75 39 -5 0 -21 10 -37 23 -15 13 -36 27 -46 30 -42
16 -39 1 32 -168 5 -11 25 -59 45 -107 108 -259 274 -580 424 -818 95 -151
161 -252 202 -305 25 -33 53 -72 63 -87 27 -44 222 -283 331 -407 303 -345
695 -682 1106 -949 229 -149 189 -125 440 -265 78 -44 299 -152 445 -217 133
-60 439 -180 459 -180 4 0 22 -6 39 -14 60 -27 461 -146 572 -170 17 -4 46
-11 65 -15 19 -5 91 -20 160 -35 69 -14 148 -31 175 -37 89 -19 190 -33 450
-64 83 -10 154 -21 159 -26 10 -9 -51 -37 -109 -49 -22 -4 -65 -15 -95 -23
-30 -8 -98 -24 -150 -36 -52 -12 -122 -28 -155 -36 -116 -27 -276 -57 -450
-84 -38 -6 -97 -16 -130 -22 -33 -6 -98 -15 -145 -20 -47 -4 -123 -13 -170
-18 -468 -53 -1058 -52 -1530 3 -146 17 -303 42 -361 57 -20 5 -48 9 -63 9
-26 0 -88 14 -276 60 -47 12 -101 25 -120 30 -30 7 -178 49 -285 80 -25 7
-186 64 -235 83 -8 3 -40 14 -70 25 -148 54 -394 165 -600 274 -75 39 -114 61
-185 105 -11 7 -40 24 -65 39 -232 139 -557 386 -669 509 -32 36 -35 37 -47
20 -26 -35 -6 -438 36 -750 18 -132 28 -182 39 -203 6 -11 11 -32 11 -45 0
-42 58 -253 100 -362 58 -154 81 -207 130 -305 32 -64 75 -142 96 -175 49 -77
160 -223 192 -253 17 -17 21 -27 14 -34 -7 -7 -32 -2 -84 17 -40 15 -91 33
-113 39 -47 15 -37 11 -230 89 -214 86 -445 194 -570 266 -27 16 -79 45 -115
64 -36 19 -92 52 -125 73 -33 22 -68 44 -77 49 -116 70 -420 292 -539 393
-218 185 -331 294 -528 511 -77 85 -236 281 -277 341 -14 19 -38 53 -55 75
-65 87 -289 434 -289 449 0 3 -13 28 -29 55 -49 83 -164 315 -234 471 -100
225 -203 547 -273 856 -28 125 -34 130 -120 93 -260 -112 -421 -239 -559 -440
-30 -44 -55 -82 -55 -84 0 -2 -13 -26 -28 -52 -16 -27 -43 -89 -61 -138 -18
-50 -37 -99 -41 -110 -5 -11 -11 -31 -15 -45 -3 -14 -15 -59 -26 -100 -11 -41
-24 -115 -29 -165 -5 -49 -14 -121 -20 -159 -6 -37 -9 -127 -8 -199 2 -88 -1
-131 -8 -134 -19 -6 -216 278 -330 474 -93 160 -212 404 -267 548 -9 22 -29
75 -46 119 -17 43 -31 85 -31 93 0 8 -6 27 -14 41 -8 15 -19 47 -26 72 -7 25
-20 72 -30 105 -43 145 -63 228 -85 350 -9 50 -21 113 -27 140 -6 28 -14 79
-18 115 -4 36 -16 133 -26 215 -31 266 -23 897 16 1165 22 154 43 283 67 405
38 194 40 205 56 265 8 30 27 100 41 155 15 55 30 109 35 120 20 49 34 92 38
122 5 30 3 32 -33 39 -108 20 -474 -20 -604 -66 -232 -83 -334 -135 -490 -247
-100 -73 -286 -252 -326 -315 -42 -66 -52 -52 -82 107 -12 61 -26 169 -33 240
-6 72 -13 133 -16 138 -6 10 25 316 39 387 15 77 48 211 58 235 4 11 22 61 40
110 158 439 538 885 1055 1237 44 30 87 57 95 61 8 4 29 16 45 27 17 11 39 24
50 30 11 5 43 23 70 39 28 17 71 40 98 52 68 31 61 60 -18 74 -22 4 -51 13
-65 20 -14 7 -36 17 -50 23 -14 5 -47 19 -75 30 -95 39 -298 148 -410 221 -81
52 -302 220 -385 290 -215 185 -430 423 -633 701 -41 56 -43 87 -4 76 77 -23
132 -35 297 -68 90 -17 503 -17 590 0 316 64 563 173 785 345 93 72 266 242
320 312 29 39 60 77 69 84 17 14 22 61 8 61 -17 0 -179 136 -267 225 -97 96
-235 273 -284 364 -17 31 -45 80 -62 110 -99 176 -206 502 -238 726 -20 142
-20 143 -5 156 12 9 24 2 67 -38 108 -101 434 -343 463 -343 4 0 15 -6 23 -14
19 -16 171 -96 221 -115 19 -8 49 -20 65 -27 169 -71 349 -119 535 -145 93
-12 410 -7 520 10 111 17 343 77 407 106 17 8 36 15 42 15 20 0 235 103 316
151 33 19 67 39 75 43 69 33 260 178 260 197 0 9 -66 81 -146 160 -133 131
-324 340 -324 354 0 4 -18 28 -40 54 -22 26 -40 50 -40 54 0 4 -20 34 -44 67
-38 52 -158 277 -193 365 -71 175 -105 356 -105 565 -1 224 26 353 116 553 19
44 30 58 43 55 10 -2 19 -14 21 -26 6 -38 140 -298 210 -406 36 -56 91 -135
123 -176 71 -94 274 -301 354 -361 68 -52 229 -159 239 -159 3 0 23 -10 44
-23 20 -13 73 -38 117 -57 44 -18 84 -37 90 -42 5 -4 16 -8 25 -8 8 0 27 -6
42 -14 33 -17 231 -68 348 -89 172 -32 300 -40 510 -33 279 9 372 20 606 72
65 14 134 28 152 31 18 3 35 9 38 14 3 5 13 9 22 9 18 0 170 47 250 77 24 9
42 22 42 31 0 9 -29 59 -64 111 -240 361 -356 704 -356 1055 0 355 124 695
364 996 83 104 226 244 236 234 6 -6 5 -41 -1 -84z m5326 -14631 c12 -18 -3
-22 -20 -5 -14 14 -14 16 -1 16 8 0 18 -5 21 -11z"/>
<path d="M16866 17518 c-3 -24 -9 -70 -15 -103 -5 -33 -10 -127 -10 -209 -1
-125 3 -164 23 -250 30 -120 56 -189 109 -276 58 -95 116 -167 190 -235 117
-108 147 -127 345 -216 52 -23 92 -25 92 -4 0 43 -23 211 -32 234 -5 14 -14
46 -18 71 -12 64 -29 132 -39 155 -4 11 -16 45 -25 75 -10 30 -33 82 -51 115
-32 58 -54 85 -250 306 -49 56 -102 118 -117 138 -55 73 -128 181 -122 181 3
0 -4 14 -16 30 -32 45 -57 40 -64 -12z"/>
</g>
</svg>
